<?xml version="1.0" encoding="UTF-8"?>
<svg width="508px" height="508px" viewBox="0 0 508 508" version="1.1" xmlns="http://www.w3.org/2000/svg" xmlns:xlink="http://www.w3.org/1999/xlink">
    <title>Artboard</title>
    <defs>
        <path d="M97.4276376,-3.93619317e-15 L410.572362,3.93619317e-15 C444.450075,-2.28704159e-15 456.734952,3.52737322 469.120137,10.1510427 C481.505322,16.7747123 491.225288,26.4946781 497.848957,38.8798633 C504.472627,51.2650485 508,63.5499255 508,97.4276376 L508,410.572362 C508,444.450075 504.472627,456.734952 497.848957,469.120137 C491.225288,481.505322 481.505322,491.225288 469.120137,497.848957 C456.734952,504.472627 444.450075,508 410.572362,508 L97.4276376,508 C63.5499255,508 51.2650485,504.472627 38.8798633,497.848957 C26.4946781,491.225288 16.7747123,481.505322 10.1510427,469.120137 C3.52737322,456.734952 1.52469439e-15,444.450075 -2.62412878e-15,410.572362 L2.62412878e-15,97.4276376 C-1.52469439e-15,63.5499255 3.52737322,51.2650485 10.1510427,38.8798633 C16.7747123,26.4946781 26.4946781,16.7747123 38.8798633,10.1510427 C51.2650485,3.52737322 63.5499255,2.28704159e-15 97.4276376,-3.93619317e-15 Z" id="path-1"></path>
    </defs>
    <g id="Artboard" stroke="none" stroke-width="1" fill="none" fill-rule="evenodd">
        <mask id="mask-2" fill="white">
            <use xlink:href="#path-1"></use>
        </mask>
        <g id="Rectangle"></g>
        <rect id="Rectangle-Copy" fill="#83B4FF" mask="url(#mask-2)" x="0" y="0" width="508" height="508" rx="11"></rect>
        <g id="Group" mask="url(#mask-2)" stroke="#B5D2FF" stroke-dasharray="47" stroke-linecap="round" stroke-width="12">
            <g transform="translate(-23.000000, 0.000000)" id="Line">
                <line x1="157.5" y1="12.5" x2="157.5" y2="613.5"></line>
                <line x1="373.5" y1="12.5" x2="373.5" y2="613.5"></line>
                <line x1="373.5" y1="0.5" x2="373.5" y2="601.5"></line>
                <line x1="302.5" y1="-132.5" x2="302.5" y2="468.5" transform="translate(302.500000, 168.000000) rotate(-90.000000) translate(-302.500000, -168.000000) "></line>
                <line x1="301" y1="111.5" x2="301" y2="712.5" transform="translate(301.000000, 412.000000) rotate(-90.000000) translate(-301.000000, -412.000000) "></line>
            </g>
        </g>
    </g>
</svg>