<svg viewBox="0 0 14 10" version="1.1" xmlns="http://www.w3.org/2000/svg" xmlns:xlink="http://www.w3.org/1999/xlink">
    <g id="Workflow" stroke="none" stroke-width="1" fill="none" fill-rule="evenodd">
        <g id="Artboard" transform="translate(-4.000000, -3.000000)" fill="#FFFFFF" fill-rule="nonzero">
            <path d="M12.796875,12.578125 C12.9947917,12.578125 13.1744792,12.5 13.3359375,12.34375 L17.34375,8.34375 C17.5052083,8.1875 17.5859375,8.00260417 17.5859375,7.7890625 C17.5859375,7.57552083 17.5052083,7.390625 17.34375,7.234375 L13.3359375,3.234375 C13.1744792,3.078125 12.9947917,3 12.796875,3 C12.5885417,3 12.4153646,3.06770833 12.2773438,3.203125 C12.1393229,3.33854167 12.0703125,3.51041667 12.0703125,3.71875 C12.0703125,3.82291667 12.0898438,3.92057292 12.1289063,4.01171875 C12.1679688,4.10286458 12.2213542,4.18229167 12.2890625,4.25 L13.4296875,5.4140625 L15.3217187,7.1315 L13.8828125,7.0390625 L4.7578125,7.0390625 C4.52864583,7.0390625 4.34505208,7.109375 4.20703125,7.25 C4.06901042,7.390625 4,7.5703125 4,7.7890625 C4,8.0078125 4.06901042,8.1875 4.20703125,8.328125 C4.34505208,8.46875 4.52864583,8.5390625 4.7578125,8.5390625 L13.8828125,8.5390625 L15.3297187,8.4475 L13.4296875,10.1640625 L12.2890625,11.328125 C12.2213542,11.3958333 12.1679688,11.4752604 12.1289063,11.5664063 C12.0898438,11.6575521 12.0703125,11.7552083 12.0703125,11.859375 C12.0703125,12.0625 12.1393229,12.2330729 12.2773438,12.3710938 C12.4153646,12.5091146 12.5885417,12.578125 12.796875,12.578125 Z" id="→" transform="translate(10.792969, 7.789062) scale(-1, 1) translate(-10.792969, -7.789062) "></path>
        </g>
    </g>
</svg>