<?xml version="1.0" encoding="UTF-8" standalone="no"?>
<!DOCTYPE svg PUBLIC "-//W3C//DTD SVG 1.1//EN" "http://www.w3.org/Graphics/SVG/1.1/DTD/svg11.dtd">
<svg width="138px" height="50px" viewBox="0 0 138 50" preserveAspectRatio="none" version="1.1" xmlns="http://www.w3.org/2000/svg" xmlns:xlink="http://www.w3.org/1999/xlink">
    <g id="Workflow" stroke="none" stroke-width="1" fill="none" fill-rule="evenodd" stroke-linecap="round">
        <g id="Artboard" transform="translate(-3.000000, -3.000000)" stroke="#000000" stroke-width="3">
            <path d="M5.41794986,51.382177 L50.6852058,48.7086361 C62.1292507,48.0327365 72.8853048,43.0199729 80.7628121,34.6912346 L81.0067105,34.4333655 C88.8238713,26.1684316 99.2257681,20.8163302 110.495067,19.260684 C120.276617,17.910411 125.710439,17.2352745 126.796533,17.2352745 L133.092432,17.2352745 C134.110498,17.2352745 135.130518,17.2589073 136.148096,17.2352745 C139.10415,17.1665245 137.683252,15.3722862 135.3146,13.6241417 C134.118799,12.7412315 128.231592,6.46139756 128.231592,5.05934678 C128.231592,4.81828233 128.592432,5.38019639 128.787256,5.52228623 C129.846338,6.29528428 130.725732,7.0151085 131.657373,7.92970811 C134.0021,10.2315148 135.808252,12.8620323 137.768701,15.4759972 C138.17251,16.0144737 139.287256,17.3002159 138.925928,18.1148644 C137.91958,20.3840538 128.862939,23.8425499 126.842432,24.7352745 C125.59707,25.2856163 124.358691,25.854464 123.092578,26.3556358 C121.821777,26.8586632 120.215674,27.2946495 120.222217,27.2815636 C120.346875,27.0321983 120.990088,26.542794 121.101855,26.448214 C121.904346,25.7692101 122.697168,25.0786339 123.509277,24.4112023 C123.824023,24.152462 124.153076,23.911544 124.481494,23.6704308 C125.372266,23.0164269 126.269824,22.3717003 127.16665,21.7259972 C128.218408,20.9688194 129.304346,20.2752159 130.407373,19.5963585" id="Path"></path>
        </g>
    </g>
</svg>