<?xml version="1.0" encoding="UTF-8" standalone="no"?>
<!DOCTYPE svg PUBLIC "-//W3C//DTD SVG 1.1//EN" "http://www.w3.org/Graphics/SVG/1.1/DTD/svg11.dtd">
<svg width="91px" height="114px" viewBox="0 0 91 114" preserveAspectRatio="none" version="1.1" xmlns="http://www.w3.org/2000/svg" xmlns:xlink="http://www.w3.org/1999/xlink">
    <g id="Workflow" stroke="none" stroke-width="1" fill="none" fill-rule="evenodd" stroke-linecap="round">
        <g id="Artboard" transform="translate(-7.000000, -3.000000)" stroke="#000000" stroke-width="3">
            <path d="M8.73864754,114.867074 C32.2685384,112.210172 46.3507429,104.268652 50.9852611,91.0425151 C57.9370385,71.2033096 44.0334838,49.4596428 50.9852611,33.0833911 C57.9370385,16.7071395 81.3707031,17.2352745 83.7965332,17.2352745 L90.0924316,17.2352745 C91.110498,17.2352745 92.1305176,17.2589073 93.1480957,17.2352745 C96.1041504,17.1665245 94.683252,15.3722862 92.3145996,13.6241417 C91.1187988,12.7412315 85.2315918,6.46139756 85.2315918,5.05934678 C85.2315918,4.81828233 85.5924316,5.38019639 85.7872559,5.52228623 C86.8463379,6.29528428 87.7257324,7.0151085 88.657373,7.92970811 C91.0020996,10.2315148 92.808252,12.8620323 94.7687012,15.4759972 C95.1725098,16.0144737 96.2872559,17.3002159 95.9259277,18.1148644 C94.9195801,20.3840538 85.8629395,23.8425499 83.8424316,24.7352745 C82.5970703,25.2856163 81.3586914,25.854464 80.0925781,26.3556358 C78.8217773,26.8586632 77.2156738,27.2946495 77.2222168,27.2815636 C77.346875,27.0321983 77.9900879,26.542794 78.1018555,26.448214 C78.9043457,25.7692101 79.697168,25.0786339 80.5092773,24.4112023 C80.8240234,24.152462 81.1530762,23.911544 81.4814941,23.6704308 C82.3722656,23.0164269 83.2698242,22.3717003 84.1666504,21.7259972 C85.2184082,20.9688194 86.3043457,20.2752159 87.407373,19.5963585" id="Path"></path>
        </g>
    </g>
</svg>