<?xml version="1.0" encoding="UTF-8" standalone="no"?>
<!DOCTYPE svg PUBLIC "-//W3C//DTD SVG 1.1//EN" "http://www.w3.org/Graphics/SVG/1.1/DTD/svg11.dtd">
<svg width="140px" height="174px" viewBox="0 0 140 174" preserveAspectRatio="none" version="1.1" xmlns="http://www.w3.org/2000/svg" xmlns:xlink="http://www.w3.org/1999/xlink">
    <g id="Workflow" stroke="none" stroke-width="1" fill="none" fill-rule="evenodd" stroke-linecap="round">
        <g id="Artboard" transform="translate(-6.000000, -4.000000)" stroke="#000000" stroke-width="2">
            <path d="M7.88627461,175.867074 C63.2473872,180.091231 94.2803827,172.149711 100.985261,152.042515 C111.042579,121.881721 100.985261,46.9869021 108.341846,31.3234141 C115.69843,15.659926 130.370703,17.2352745 132.796533,17.2352745 L139.092432,17.2352745 C140.110498,17.2352745 141.130518,17.2589073 142.148096,17.2352745 C145.10415,17.1665245 143.683252,15.3722862 141.3146,13.6241417 C140.118799,12.7412315 134.231592,6.46139756 134.231592,5.05934678 C134.231592,4.81828233 134.592432,5.38019639 134.787256,5.52228623 C135.846338,6.29528428 136.725732,7.0151085 137.657373,7.92970811 C140.0021,10.2315148 141.808252,12.8620323 143.768701,15.4759972 C144.17251,16.0144737 145.287256,17.3002159 144.925928,18.1148644 C143.91958,20.3840538 134.862939,23.8425499 132.842432,24.7352745 C131.59707,25.2856163 130.358691,25.854464 129.092578,26.3556358 C127.821777,26.8586632 126.215674,27.2946495 126.222217,27.2815636 C126.346875,27.0321983 126.990088,26.542794 127.101855,26.448214 C127.904346,25.7692101 128.697168,25.0786339 129.509277,24.4112023 C129.824023,24.152462 130.153076,23.911544 130.481494,23.6704308 C131.372266,23.0164269 132.269824,22.3717003 133.16665,21.7259972 C134.218408,20.9688194 135.304346,20.2752159 136.407373,19.5963585" id="Path"></path>
        </g>
    </g>
</svg>


