<?xml version="1.0" encoding="UTF-8" standalone="no"?>
<!DOCTYPE svg PUBLIC "-//W3C//DTD SVG 1.1//EN" "http://www.w3.org/Graphics/SVG/1.1/DTD/svg11.dtd">


<svg width="155px" height="150px" viewBox="0 0 155 150" version="1.1" xmlns="http://www.w3.org/2000/svg" xmlns:xlink="http://www.w3.org/1999/xlink">
    <g id="Workflow" stroke="none" stroke-width="1" fill="none" fill-rule="evenodd">
        <g id="Artboard" transform="translate(-20.000000, -14.000000)">
            <path d="M89.375,119.625 C90.4583333,119.625 91.5,119.5 92.5,119.25 L92.5,119.25 L92.5,118.375 C92.5833333,116.958333 92.1666667,115.458333 91.25,113.875 C90.3333333,112.291667 89.875,111.166667 89.875,110.5 C89.875,108.083333 93.125,105.041667 99.625,101.375 C109.625,95.7916667 115.625,92.2083333 117.625,90.625 C124.125,85.7083333 127.375,80.5 127.375,75 C127.375,69.5833333 124.041667,64.5833333 117.375,60 C111.291667,55.9166667 105.375,53.875 99.625,53.875 C96.2916667,53.875 91.7083333,54.9583333 85.875,57.125 C81.875,58.5416667 77.4583333,61.25 72.625,65.25 C66.9583333,69.9166667 64.125,73.9166667 64.125,77.25 C64.125,79.3333333 65.375,81.4166667 67.875,83.5 C70.375,85.5833333 72.7083333,86.625 74.875,86.625 C76.5416667,86.625 78.2708333,85.9583333 80.0625,84.625 C81.8541667,83.2916667 82.75,81.8333333 82.75,80.25 C82.75,78.25 81.1666667,76.875 78,76.125 C80.3333333,73.625 84.1041667,71.125 89.3125,68.625 C94.5208333,66.125 98.6666667,64.875 101.75,64.875 C105.083333,64.875 107.916667,65.7083333 110.25,67.375 C112.833333,69.2916667 114.125,71.8333333 114.125,75 C114.125,79.1666667 110.958333,83.25 104.625,87.25 C98.7083333,90.5 92.8333333,93.7916667 87,97.125 C80.5833333,101.125 77.375,105.291667 77.375,109.625 C77.375,112.125 78.7916667,114.458333 81.625,116.625 C84.2083333,118.625 86.7916667,119.625 89.375,119.625 Z M85.875,137.125 C87.375,137.125 89.125,136.541667 91.125,135.375 C93.4583333,134.125 94.625,132.875 94.625,131.625 C94.625,129.958333 93.4791667,128.5 91.1875,127.25 C88.8958333,126 86.7916667,125.375 84.875,125.375 C83.2916667,125.375 81.75,125.9375 80.25,127.0625 C78.75,128.1875 78,129.5 78,131 C78,132.583333 78.9166667,134 80.75,135.25 C82.5833333,136.5 84.2916667,137.125 85.875,137.125 Z" id="?" fill="#000000" fill-rule="nonzero"></path>
            <path d="M85.3035671,20.0104739 C73.3796848,19.4928828 53.080153,38.2907343 45.9883643,47.1090975 C41.928988,52.1571806 38.3132576,56.3690463 35.4569943,61.9801039 C27.6124416,77.3899011 24.768649,95.3176155 26.4786969,112.47334 C26.7521176,115.216761 28.358035,118.729188 29.2203855,121.034792 C35.3681404,137.469721 48.2503977,150.805229 65.2886795,155.755007 C73.933385,158.267585 83.5667071,158.344533 92.4775066,157.560922 C104.41043,156.511921 117.066656,149.9855 126.391639,142.699024 C145.387668,127.858012 166.7734,109.140877 168.516184,83.1413489 C168.779628,79.1958165 169.534107,73.8250242 168.368094,69.8898561 C159.287849,39.2569776 135.228705,34.8216494 106.439105,34.7509832 C89.1292733,34.7084264 72.5430552,36.8711278 62.5421585,52.3204982" id="Path" stroke="#000000" stroke-width="10.7" stroke-linecap="round"></path>
        </g>
    </g>
</svg>