<?xml version="1.0" encoding="UTF-8" standalone="no"?>
<!DOCTYPE svg PUBLIC "-//W3C//DTD SVG 1.1//EN" "http://www.w3.org/Graphics/SVG/1.1/DTD/svg11.dtd">
<svg width="100%" height="100%" viewBox="0 0 858 781" version="1.1" xmlns="http://www.w3.org/2000/svg" xmlns:xlink="http://www.w3.org/1999/xlink" xml:space="preserve" xmlns:serif="http://www.serif.com/" style="fill-rule:evenodd;clip-rule:evenodd;stroke-linejoin:round;stroke-miterlimit:2;">
    <g transform="matrix(1,0,0,1,-451.86,-200.829)">
        <path d="M550.874,887.467C615.798,832.63 689.686,790.094 754.729,735.322C852.894,652.656 930.747,552.552 1005.6,449.188C1035.65,407.687 1119.06,287.224 1069.51,234.193C1016.9,177.886 882.873,273.531 840.542,308.507C681.136,440.216 706.097,665.05 821.377,820.834C863.759,878.107 921.094,943.27 997.452,948.148C1007.82,948.811 1024.84,952.755 1035.38,947.2C1114.62,905.42 1124.86,780.652 1086.85,707.411C1028.62,595.242 822.073,411.532 683.016,422.055C604.189,428.02 439.123,502.244 472.178,604.919C506.63,711.935 661.681,733.546 754.726,713.956C818.193,700.593 876.348,667.488 934.874,640.948C965.035,627.271 995.72,614.769 1025.9,601.126C1075.08,578.889 1123.9,554.892 1169.2,525.369C1210.16,498.674 1259.25,466.258 1283.79,422.874C1289.56,412.685 1301.05,375.278 1285.69,366.933C1229.49,336.4 1080.45,383.36 1024.9,404.914C879.974,461.148 724.841,530.936 633.363,663.704C585.562,733.08 574.721,804.417 573.795,886.819C573.406,921.477 586.659,966.342 628.777,965.637C717.739,964.147 815.831,845.556 866.607,783.17" style="fill:none;stroke:black;stroke-width:32px;stroke-linecap:round;stroke-miterlimit:1.5;"/>
    </g>
</svg>
