
<svg width="100px" height="100px" viewBox="0 0 100 100" version="1.1" xmlns="http://www.w3.org/2000/svg" xmlns:xlink="http://www.w3.org/1999/xlink">
    <g id="Workflow" stroke="none" stroke-width="1" fill="none" fill-rule="evenodd">
        <g id="Artboard" fill="#000000" fill-rule="nonzero">
            <path d="M53.0077624,97.625051 L62.2459835,79.1289632 L81.8551973,85.6719163 C84.5115554,86.5508205 87.0309662,84.0312189 86.1326071,81.3945065 L79.589654,61.7852927 L98.0857418,52.5468808 C100.624798,51.2773526 100.624798,47.7228262 98.1248423,46.4727529 L79.6287545,37.2345318 L86.1717077,17.6251273 C87.0506119,14.9689599 84.5310103,12.4493583 81.8942979,13.3479081 L62.285084,19.8908613 L53.0272173,1.37512785 C51.777144,-1.12482804 48.2226176,-1.12482804 46.9725443,1.37512785 L37.7343232,19.8712157 L18.1054637,13.3282625 C15.4491056,12.4493583 12.9296948,14.9689599 13.8280539,17.6056723 L20.371007,37.2148862 L1.87491924,46.4727529 C-0.625036657,47.7228262 -0.625036657,51.2773526 1.87491924,52.5274259 L20.371007,61.765647 L13.8280539,81.3945065 C12.9491497,84.0508646 15.4687513,86.5702754 18.1054637,85.6719163 L37.7146775,79.1289632 L46.9530893,97.625051 C48.2029719,100.125007 51.7576891,100.125007 53.0077624,97.625051 Z M32.3241417,67.1758285 C22.5779949,57.4296817 22.5779949,41.5704971 32.3241417,31.8243503 C42.0702885,22.0782035 57.9294731,22.0782035 67.6756199,31.8243503 C77.4217667,41.5704971 77.4217667,57.4296817 67.6756199,67.1758285 C57.9294731,76.9219753 42.0702885,76.9219753 32.3241417,67.1758285 Z M49.9998808,68.2500447 C60.3319637,68.2500447 68.7498361,59.8321723 68.7498361,49.5000894 C68.7498361,39.1680065 60.3319637,30.7501341 49.9998808,30.7501341 C39.6677979,30.7501341 31.2499255,39.1680065 31.2499255,49.5000894 C31.2499255,59.8321723 39.6677979,68.2500447 49.9998808,68.2500447 Z" id="sun"></path>
        </g>
    </g>
</svg>